<svg width="166" height="30" viewBox="0 0 166 30" fill="none" xmlns="http://www.w3.org/2000/svg">
<path d="M47.305 27.42C45.415 27.42 43.735 26.9883 42.265 26.125C40.8183 25.2383 39.6633 24.0483 38.8 22.555C37.96 21.0617 37.54 19.37 37.54 17.48C37.54 15.6133 37.96 13.9333 38.8 12.44C39.64 10.9467 40.795 9.78 42.265 8.94C43.735 8.07667 45.415 7.645 47.305 7.645C48.5883 7.645 49.79 7.87833 50.91 8.345C52.03 8.78833 52.9983 9.40667 53.815 10.2C54.655 10.9933 55.2733 11.915 55.67 12.965L52.205 14.575C51.8083 13.595 51.1667 12.8133 50.28 12.23C49.4167 11.6233 48.425 11.32 47.305 11.32C46.2317 11.32 45.2633 11.5883 44.4 12.125C43.56 12.6383 42.895 13.3733 42.405 14.33C41.915 15.2633 41.67 16.325 41.67 17.515C41.67 18.705 41.915 19.7783 42.405 20.735C42.895 21.6683 43.56 22.4033 44.4 22.94C45.2633 23.4767 46.2317 23.745 47.305 23.745C48.4483 23.745 49.44 23.4533 50.28 22.87C51.1433 22.2633 51.785 21.4583 52.205 20.455L55.67 22.1C55.2967 23.1033 54.69 24.0133 53.85 24.83C53.0333 25.6233 52.065 26.2533 50.945 26.72C49.825 27.1867 48.6117 27.42 47.305 27.42ZM67.2706 27.42C65.4506 27.42 63.7823 26.9883 62.2656 26.125C60.7723 25.2617 59.5823 24.0833 58.6956 22.59C57.8089 21.0967 57.3656 19.405 57.3656 17.515C57.3656 15.6017 57.8089 13.91 58.6956 12.44C59.5823 10.9467 60.7723 9.78 62.2656 8.94C63.7589 8.07667 65.4273 7.645 67.2706 7.645C69.1373 7.645 70.8056 8.07667 72.2756 8.94C73.7689 9.78 74.9473 10.9467 75.8106 12.44C76.6973 13.91 77.1406 15.6017 77.1406 17.515C77.1406 19.4283 76.6973 21.1317 75.8106 22.625C74.9239 24.1183 73.7339 25.2967 72.2406 26.16C70.7473 27 69.0906 27.42 67.2706 27.42ZM67.2706 23.745C68.3906 23.745 69.3823 23.4767 70.2456 22.94C71.1089 22.4033 71.7856 21.6683 72.2756 20.735C72.7889 19.7783 73.0456 18.705 73.0456 17.515C73.0456 16.325 72.7889 15.2633 72.2756 14.33C71.7856 13.3967 71.1089 12.6617 70.2456 12.125C69.3823 11.5883 68.3906 11.32 67.2706 11.32C66.1739 11.32 65.1823 11.5883 64.2956 12.125C63.4323 12.6617 62.7439 13.3967 62.2306 14.33C61.7406 15.2633 61.4956 16.325 61.4956 17.515C61.4956 18.705 61.7406 19.7783 62.2306 20.735C62.7439 21.6683 63.4323 22.4033 64.2956 22.94C65.1823 23.4767 66.1739 23.745 67.2706 23.745ZM79.6018 27V8.065H83.5568V27H79.6018ZM79.6018 5.475V0.924998H83.5568V5.475H79.6018ZM86.7809 27V8.065H90.5609V11.775L90.1059 11.285C90.5726 10.095 91.3192 9.19667 92.3459 8.59C93.3726 7.96 94.5626 7.645 95.9159 7.645C97.3159 7.645 98.5526 7.94833 99.6259 8.555C100.699 9.16167 101.539 10.0017 102.146 11.075C102.753 12.1483 103.056 13.385 103.056 14.785V27H99.1359V15.835C99.1359 14.8783 98.9609 14.0733 98.6109 13.42C98.2609 12.7433 97.7592 12.23 97.1059 11.88C96.4759 11.5067 95.7526 11.32 94.9359 11.32C94.1192 11.32 93.3842 11.5067 92.7309 11.88C92.1009 12.23 91.6109 12.7433 91.2609 13.42C90.9109 14.0967 90.7359 14.9017 90.7359 15.835V27H86.7809ZM114.639 27.42C112.819 27.42 111.185 26.9883 109.739 26.125C108.315 25.2383 107.184 24.0483 106.344 22.555C105.527 21.0617 105.119 19.3817 105.119 17.515C105.119 15.6483 105.539 13.9683 106.379 12.475C107.219 10.9817 108.35 9.80333 109.774 8.94C111.197 8.07667 112.807 7.645 114.604 7.645C116.12 7.645 117.462 7.94833 118.629 8.555C119.795 9.16167 120.717 10.0017 121.394 11.075L120.799 11.985V0.504999H124.719V27H120.974V23.15L121.429 23.885C120.775 25.0283 119.842 25.9033 118.629 26.51C117.415 27.1167 116.085 27.42 114.639 27.42ZM115.024 23.745C116.12 23.745 117.1 23.4767 117.964 22.94C118.85 22.4033 119.539 21.6683 120.029 20.735C120.542 19.7783 120.799 18.705 120.799 17.515C120.799 16.325 120.542 15.2633 120.029 14.33C119.539 13.3967 118.85 12.6617 117.964 12.125C117.1 11.5883 116.12 11.32 115.024 11.32C113.927 11.32 112.935 11.5883 112.049 12.125C111.162 12.6617 110.474 13.3967 109.984 14.33C109.494 15.2633 109.249 16.325 109.249 17.515C109.249 18.705 109.494 19.7783 109.984 20.735C110.474 21.6683 111.15 22.4033 112.014 22.94C112.9 23.4767 113.904 23.745 115.024 23.745ZM137.071 27.42C135.251 27.42 133.583 26.9883 132.066 26.125C130.573 25.2617 129.383 24.0833 128.496 22.59C127.609 21.0967 127.166 19.405 127.166 17.515C127.166 15.6017 127.609 13.91 128.496 12.44C129.383 10.9467 130.573 9.78 132.066 8.94C133.559 8.07667 135.228 7.645 137.071 7.645C138.938 7.645 140.606 8.07667 142.076 8.94C143.569 9.78 144.748 10.9467 145.611 12.44C146.498 13.91 146.941 15.6017 146.941 17.515C146.941 19.4283 146.498 21.1317 145.611 22.625C144.724 24.1183 143.534 25.2967 142.041 26.16C140.548 27 138.891 27.42 137.071 27.42ZM137.071 23.745C138.191 23.745 139.183 23.4767 140.046 22.94C140.909 22.4033 141.586 21.6683 142.076 20.735C142.589 19.7783 142.846 18.705 142.846 17.515C142.846 16.325 142.589 15.2633 142.076 14.33C141.586 13.3967 140.909 12.6617 140.046 12.125C139.183 11.5883 138.191 11.32 137.071 11.32C135.974 11.32 134.983 11.5883 134.096 12.125C133.233 12.6617 132.544 13.3967 132.031 14.33C131.541 15.2633 131.296 16.325 131.296 17.515C131.296 18.705 131.541 19.7783 132.031 20.735C132.544 21.6683 133.233 22.4033 134.096 22.94C134.983 23.4767 135.974 23.745 137.071 23.745ZM146.829 27L153.444 17.515L146.829 8.065H151.484L156.909 15.975H154.669L160.094 8.065H164.749L158.099 17.515L164.714 27H160.059L154.704 19.055H156.874L151.484 27H146.829Z" fill="white"/>
<path fill-rule="evenodd" clip-rule="evenodd" d="M5.72874 5.44879L9.13353 3.16906C9.4702 2.94365 9.90961 2.94365 10.2463 3.16906L13.6511 5.44879C13.9283 5.63442 14.0947 5.94609 14.0947 6.27973V9.38004C14.0947 9.73823 13.9031 10.0691 13.5925 10.2474L10.1877 12.2014C9.8794 12.3783 9.5004 12.3783 9.19214 12.2014L5.78735 10.2474C5.47669 10.0691 5.28511 9.73823 5.28511 9.38004V6.27973C5.28511 5.94609 5.45151 5.63442 5.72874 5.44879ZM20.5857 3.16906L17.1809 5.44879C16.9036 5.63442 16.7372 5.94609 16.7372 6.27973V9.38004C16.7372 9.73823 16.9288 10.0691 17.2395 10.2474L20.6443 12.2014C20.9525 12.3783 21.3315 12.3783 21.6398 12.2014L25.0446 10.2474C25.3552 10.0691 25.5468 9.73823 25.5468 9.38004V6.27973C25.5468 5.94609 25.3804 5.63442 25.1032 5.44879L21.6984 3.16906C21.3617 2.94365 20.9223 2.94365 20.5857 3.16906ZM15.3005 11.9786L11.8958 14.2584C11.6185 14.444 11.4521 14.7557 11.4521 15.0893V18.1896C11.4521 18.5478 11.6437 18.8786 11.9544 19.0569L15.3592 21.011C15.6674 21.1879 16.0464 21.1879 16.3547 21.011L19.7595 19.0569C20.0701 18.8786 20.2617 18.5478 20.2617 18.1896V15.0893C20.2617 14.7557 20.0953 14.444 19.8181 14.2584L16.4133 11.9786C16.0766 11.7532 15.6372 11.7532 15.3005 11.9786ZM3.84842 11.9786L0.443633 14.2584C0.166397 14.444 0 14.7557 0 15.0893V18.1896C0 18.5478 0.191576 18.8786 0.502237 19.0569L3.90703 21.011C4.21529 21.1879 4.59429 21.1879 4.90255 21.011L8.30734 19.0569C8.618 18.8786 8.80958 18.5478 8.80958 18.1896V15.0893C8.80958 14.7557 8.64318 14.444 8.36595 14.2584L4.96116 11.9786C4.62449 11.7532 4.18509 11.7532 3.84842 11.9786ZM5.72874 23.0679L9.13353 20.7882C9.4702 20.5628 9.90961 20.5628 10.2463 20.7882L13.6511 23.0679C13.9283 23.2536 14.0947 23.5652 14.0947 23.8989V26.9992C14.0947 27.3574 13.9031 27.6882 13.5925 27.8665L10.1877 29.8205C9.8794 29.9975 9.5004 29.9975 9.19214 29.8205L5.78735 27.8665C5.47669 27.6882 5.28511 27.3574 5.28511 26.9992V23.8989C5.28511 23.5652 5.45151 23.2536 5.72874 23.0679ZM20.5857 20.7882L17.1809 23.0679C16.9036 23.2536 16.7372 23.5652 16.7372 23.8989V26.9992C16.7372 27.3574 16.9288 27.6882 17.2395 27.8665L20.6443 29.8205C20.9525 29.9975 21.3315 29.9975 21.6398 29.8205L25.0446 27.8665C25.3552 27.6882 25.5468 27.3574 25.5468 26.9992V23.8989C25.5468 23.5652 25.3804 23.2536 25.1032 23.0679L21.6984 20.7882C21.3617 20.5628 20.9223 20.5628 20.5857 20.7882ZM23.3479 14.2584L26.7527 11.9786C27.0893 11.7532 27.5287 11.7532 27.8654 11.9786L31.2702 14.2584C31.5474 14.444 31.7138 14.7557 31.7138 15.0893V18.1896C31.7138 18.5478 31.5223 18.8786 31.2116 19.0569L27.8068 21.011C27.4985 21.1879 27.1195 21.1879 26.8113 21.011L23.4065 19.0569C23.0958 18.8786 22.9042 18.5478 22.9042 18.1896V15.0893C22.9042 14.7557 23.0706 14.444 23.3479 14.2584Z" fill="url(#paint0_linear_1202_381)"/>
<defs>
<linearGradient id="paint0_linear_1202_381" x1="24.2281" y1="2.82326" x2="-8.7597" y2="34.0983" gradientUnits="userSpaceOnUse">
<stop stop-color="#5E2FF4"/>
<stop offset="0.174673" stop-color="#8CA7FF"/>
<stop offset="0.395416" stop-color="#E4DAFF"/>
<stop offset="0.844385" stop-color="#C3B1FE"/>
<stop offset="1" stop-color="#5E2FF4"/>
</linearGradient>
</defs>
</svg>
