<svg width="21" height="16" viewBox="0 0 21 16" fill="none" xmlns="http://www.w3.org/2000/svg">
<path d="M17.6256 1.32633C16.2986 0.712455 14.8755 0.260158 13.3876 0.001087C13.3605 -0.00391484 13.3335 0.00858975 13.3195 0.0335579C13.1365 0.361752 12.9338 0.78986 12.7918 1.12638C11.1915 0.884813 9.59937 0.884813 8.03188 1.12638C7.88988 0.782399 7.6798 0.361752 7.49595 0.0335579C7.48201 0.00940972 7.45492 -0.00309487 7.42784 0.001087C5.94079 0.259297 4.51775 0.711594 3.18986 1.32633C3.17835 1.33133 3.16851 1.33965 3.16196 1.35048C0.462762 5.41611 -0.276697 9.38183 0.0860378 13.2983C0.0876645 13.3175 0.0983594 13.3358 0.113121 13.3475C1.89398 14.666 3.61908 15.4665 5.3121 15.9971C5.33919 16.0054 5.3679 15.9954 5.38514 15.9729C5.78561 15.4215 6.14261 14.8401 6.4487 14.2287C6.46676 14.1929 6.44951 14.1505 6.41259 14.1363C5.84632 13.9197 5.30714 13.6557 4.78846 13.3558C4.74743 13.3317 4.74413 13.2725 4.78191 13.2442C4.89106 13.1617 5.00024 13.0759 5.10447 12.9893C5.12334 12.9735 5.14961 12.9702 5.17177 12.9801C8.5792 14.5486 12.2682 14.5486 15.6354 12.9801C15.6575 12.9693 15.6838 12.9727 15.7035 12.9884C15.8077 13.0751 15.9169 13.1617 16.0269 13.2442C16.0646 13.2725 16.0621 13.3316 16.0211 13.3558C15.5024 13.6615 14.9633 13.9197 14.3962 14.1354C14.3593 14.1496 14.3428 14.1929 14.3609 14.2287C14.6736 14.8392 15.0306 15.4206 15.4237 15.9721C15.4401 15.9954 15.4696 16.0054 15.4967 15.997C17.1979 15.4665 18.923 14.666 20.7039 13.3474C20.7195 13.3358 20.7294 13.3183 20.731 13.2991C21.1651 8.77119 20.0038 4.83799 17.6526 1.35126C17.6469 1.33965 17.6371 1.33133 17.6256 1.32633ZM6.95763 10.9136C5.93176 10.9136 5.08645 9.96405 5.08645 8.79788C5.08645 7.63172 5.91533 6.68219 6.95763 6.68219C8.00805 6.68219 8.84519 7.64008 8.82876 8.79788C8.82876 9.96405 7.99984 10.9136 6.95763 10.9136ZM13.8759 10.9136C12.8501 10.9136 12.0048 9.96405 12.0048 8.79788C12.0048 7.63172 12.8336 6.68219 13.8759 6.68219C14.9264 6.68219 15.7635 7.64008 15.7471 8.79788C15.7471 9.96405 14.9264 10.9136 13.8759 10.9136Z" fill="white"/>
</svg>
