<svg width="72" height="72" viewBox="0 0 72 72" fill="none" xmlns="http://www.w3.org/2000/svg">
<path d="M48.72 6H23.28C15 6 12 9 12 17.43V54.57C12 63 15 66 23.28 66H48.69C57 66 60 63 60 54.57V17.43C60 9 57 6 48.72 6ZM36 57.9C33.12 57.9 30.75 55.53 30.75 52.65C30.75 49.77 33.12 47.4 36 47.4C38.88 47.4 41.25 49.77 41.25 52.65C41.25 55.53 38.88 57.9 36 57.9ZM42 18.75H30C28.77 18.75 27.75 17.73 27.75 16.5C27.75 15.27 28.77 14.25 30 14.25H42C43.23 14.25 44.25 15.27 44.25 16.5C44.25 17.73 43.23 18.75 42 18.75Z" fill="white"/>
</svg>
