<svg width="72" height="72" viewBox="0 0 72 72" fill="none" xmlns="http://www.w3.org/2000/svg">
<path d="M66 66H6C4.77 66 3.75 64.98 3.75 63.75C3.75 62.52 4.77 61.5 6 61.5H66C67.23 61.5 68.25 62.52 68.25 63.75C68.25 64.98 67.23 66 66 66Z" fill="white"/>
<path d="M29.25 12V66H42.75V12C42.75 8.7 41.4 6 37.35 6H34.65C30.6 6 29.25 8.7 29.25 12Z" fill="white"/>
<path d="M9 30V66H21V30C21 26.7 19.8 24 16.2 24H13.8C10.2 24 9 26.7 9 30Z" fill="white"/>
<path d="M51 45V66H63V45C63 41.7 61.8 39 58.2 39H55.8C52.2 39 51 41.7 51 45Z" fill="white"/>
</svg>
