<svg width="67" height="67" viewBox="0 0 67 67" fill="none" xmlns="http://www.w3.org/2000/svg">
<path d="M41.4563 11.0271V21.6354H37.2688V11.0271C37.2688 10.2733 36.5988 9.9104 36.1521 9.9104C36.0125 9.9104 35.8729 9.93832 35.7334 9.99415L13.5954 18.3412C12.1159 18.8996 11.1667 20.2954 11.1667 21.8867V23.7571C8.62627 25.6554 6.97919 28.6983 6.97919 32.1321V21.8867C6.97919 18.5646 9.0171 15.6054 12.1159 14.4329L34.2817 6.0579C34.8959 5.83457 35.5379 5.7229 36.1521 5.7229C38.9438 5.7229 41.4563 7.98415 41.4563 11.0271Z" fill="white"/>
<path d="M60.0208 40.4792V43.2709C60.0208 44.0246 59.4346 44.6388 58.6529 44.6667H54.5771C53.0975 44.6667 51.7575 43.578 51.6458 42.1263C51.5621 41.2609 51.8971 40.4513 52.4554 39.893C52.9579 39.3625 53.6558 39.0834 54.4096 39.0834H58.625C59.4346 39.1113 60.0208 39.7255 60.0208 40.4792Z" fill="white"/>
<path d="M54.3817 36.152H57.2292C58.7646 36.152 60.0209 34.8958 60.0209 33.3604V32.132C60.0209 26.3533 55.3029 21.6354 49.5242 21.6354H17.4759C15.1029 21.6354 12.9254 22.417 11.1667 23.757C8.62627 25.6554 6.97919 28.6983 6.97919 32.132V50.92C6.97919 56.6987 11.6971 61.4166 17.4759 61.4166H49.5242C55.3029 61.4166 60.0209 56.6987 60.0209 50.92V50.3895C60.0209 48.8541 58.7646 47.5979 57.2292 47.5979H54.8004C52.1204 47.5979 49.5521 45.9508 48.8542 43.3545C48.2679 41.2329 48.9659 39.195 50.3617 37.827C51.3946 36.7662 52.8184 36.152 54.3817 36.152ZM39.0834 35.5937H19.5417C18.3971 35.5937 17.4479 34.6445 17.4479 33.5C17.4479 32.3554 18.3971 31.4062 19.5417 31.4062H39.0834C40.2279 31.4062 41.1771 32.3554 41.1771 33.5C41.1771 34.6445 40.2279 35.5937 39.0834 35.5937Z" fill="white"/>
</svg>
