<svg width="56" height="60" viewBox="0 0 56 60" fill="none" xmlns="http://www.w3.org/2000/svg">
<path d="M46.9583 6.98752L32.4041 1.53335C29.9833 0.629183 26.0166 0.629183 23.5958 1.53335L9.04163 6.98752C5.68747 8.24168 2.9458 12.2083 2.9458 15.7667V37.4375C2.9458 40.8792 5.2208 45.4 7.99163 47.4708L20.5333 56.8334C24.6458 59.925 31.4125 59.925 35.525 56.8334L48.0666 47.4708C50.8375 45.4 53.1125 40.8792 53.1125 37.4375V15.7667C53.0541 12.2083 50.3125 8.24168 46.9583 6.98752ZM27.7958 15.5042C31.2375 15.5042 34.0375 18.3042 34.0375 21.7458C34.0375 25.1292 31.3833 27.8417 28.0291 27.9583H27.9708H27.9125C27.8541 27.9583 27.7958 27.9583 27.7375 27.9583C24.2375 27.8417 21.6125 25.1292 21.6125 21.7458C21.5833 18.3042 24.3833 15.5042 27.7958 15.5042ZM34.3875 42.7167C32.6083 43.8834 30.3041 44.4958 28 44.4958C25.6958 44.4958 23.3625 43.9125 21.6125 42.7167C19.95 41.6083 19.0458 40.0917 19.0166 38.4292C19.0166 36.7958 19.95 35.2208 21.6125 34.1125C25.1416 31.7792 30.8875 31.7792 34.4166 34.1125C36.0791 35.2208 37.0125 36.7375 37.0125 38.4C36.9833 40.0333 36.05 41.6083 34.3875 42.7167Z" fill="white"/>
</svg>
