<svg width="62" height="62" viewBox="0 0 62 62" fill="none" xmlns="http://www.w3.org/2000/svg">
<path d="M49.0833 38.75C43.3742 38.75 38.75 43.3742 38.75 49.0833C38.75 51.0208 39.2925 52.855 40.2483 54.405C42.0308 57.4017 45.3117 59.4167 49.0833 59.4167C52.855 59.4167 56.1358 57.4017 57.9183 54.405C58.8742 52.855 59.4167 51.0208 59.4167 49.0833C59.4167 43.3742 54.7925 38.75 49.0833 38.75ZM54.4308 47.9725L48.9283 53.0617C48.5667 53.3975 48.0758 53.5783 47.6108 53.5783C47.12 53.5783 46.6292 53.3975 46.2417 53.01L43.6842 50.4525C42.935 49.7033 42.935 48.4633 43.6842 47.7142C44.4333 46.965 45.6733 46.965 46.4225 47.7142L47.6625 48.9542L51.7958 45.1308C52.5708 44.4075 53.8108 44.4592 54.5342 45.2342C55.2575 46.0092 55.2058 47.2233 54.4308 47.9725Z" fill="white"/>
<path d="M56.8333 19.5042V20.6667C56.8333 22.0875 55.6708 23.25 54.25 23.25H7.74996C6.32913 23.25 5.16663 22.0875 5.16663 20.6667V19.4783C5.16663 13.5625 9.94579 8.78333 15.8616 8.78333H46.1125C52.0283 8.78333 56.8333 13.5883 56.8333 19.5042Z" fill="white"/>
<path d="M5.16663 29.7083V42.5216C5.16663 48.4375 9.94579 53.2166 15.8616 53.2166H32.0333C33.5316 53.2166 34.8233 51.9508 34.6941 50.4525C34.3325 46.5 35.5983 42.2116 39.1116 38.8016C40.5583 37.3808 42.3408 36.2958 44.2783 35.6758C47.5075 34.6425 50.6333 34.7716 53.3975 35.7016C55.0766 36.27 56.8333 35.0558 56.8333 33.2733V29.6825C56.8333 28.2616 55.6708 27.0991 54.25 27.0991H7.74996C6.32913 27.125 5.16663 28.2875 5.16663 29.7083ZM20.6666 44.5625H15.5C14.4408 44.5625 13.5625 43.6841 13.5625 42.625C13.5625 41.5658 14.4408 40.6875 15.5 40.6875H20.6666C21.7258 40.6875 22.6041 41.5658 22.6041 42.625C22.6041 43.6841 21.7258 44.5625 20.6666 44.5625Z" fill="white"/>
</svg>
