<svg width="28" height="34" viewBox="0 0 28 34" fill="none" xmlns="http://www.w3.org/2000/svg">
<path d="M7.16776 21.7409C7.16776 21.1918 6.78671 20.8643 6.11437 20.8643C5.83983 20.8643 5.65389 20.8913 5.55664 20.9173V22.6792C5.67179 22.7051 5.81335 22.7138 6.00848 22.7138C6.72512 22.7138 7.16776 22.3517 7.16776 21.7409Z" fill="white"/>
<path d="M11.3297 20.8823C11.0287 20.8823 10.8341 20.9083 10.719 20.9353V24.8375C10.8341 24.8645 11.0201 24.8645 11.1882 24.8645C12.4096 24.8731 13.2062 24.2008 13.2062 22.7762C13.2149 21.5373 12.489 20.8823 11.3297 20.8823Z" fill="white"/>
<path d="M19.0626 0.466309H5.78137C3.8411 0.466309 2.26194 2.04657 2.26194 3.98573V17H1.9182C1.13509 17 0.5 17.6344 0.5 18.4182V27.019C0.5 27.8027 1.13503 28.4371 1.9182 28.4371H2.26194V30.0143C2.26194 31.9555 3.8411 33.5337 5.78137 33.5337H23.903C25.8421 33.5337 27.4214 31.9555 27.4214 30.0143V8.79585L19.0626 0.466309ZM4.22052 19.9704C4.63614 19.9001 5.22034 19.8472 6.04343 19.8472C6.87523 19.8472 7.46807 20.006 7.86641 20.3249C8.24692 20.6254 8.5037 21.1215 8.5037 21.7053C8.5037 22.2889 8.30913 22.7852 7.95509 23.1213C7.49461 23.5547 6.81364 23.7493 6.01702 23.7493C5.83973 23.7493 5.68082 23.7405 5.55655 23.7233V25.856H4.22052V19.9704ZM23.903 31.3783H5.78137C5.03009 31.3783 4.41831 30.7666 4.41831 30.0143V28.4371H21.3114C22.0947 28.4371 22.7297 27.8027 22.7297 27.019V18.4182C22.7297 17.6344 22.0947 17 21.3114 17H4.41831V3.98573C4.41831 3.23555 5.03016 2.62378 5.78137 2.62378L18.2562 2.61075V7.2219C18.2562 8.56877 19.3491 9.66263 20.697 9.66263L25.2141 9.64967L25.2649 30.0142C25.2649 30.7666 24.6542 31.3783 23.903 31.3783ZM9.36519 25.829V19.9704C9.86072 19.8915 10.5066 19.8472 11.1882 19.8472C12.3209 19.8472 13.0555 20.0504 13.631 20.4838C14.2504 20.9443 14.6395 21.6783 14.6395 22.7321C14.6395 23.8735 14.2239 24.6616 13.6482 25.1479C13.0202 25.67 12.0642 25.9176 10.8963 25.9176C10.1969 25.9176 9.70133 25.8732 9.36519 25.829ZM19.0238 22.3603V23.4574H16.8819V25.856H15.528V19.8915H19.174V20.9972H16.8819V22.3603H19.0238Z" fill="white"/>
</svg>
