<svg width="31" height="31" viewBox="0 0 31 31" fill="none" xmlns="http://www.w3.org/2000/svg">
<g clip-path="url(#clip0_101_313)">
<path d="M15.55 14.0752C12.7125 13.3377 11.8 12.5752 11.8 11.3877C11.8 10.0252 13.0625 9.0752 15.175 9.0752C17.4 9.0752 18.225 10.1377 18.3 11.7002H21.0625C20.975 9.5502 19.6625 7.5752 17.05 6.9377V4.2002H13.3V6.9002C10.875 7.4252 8.92498 9.0002 8.92498 11.4127C8.92498 14.3002 11.3125 15.7377 14.8 16.5752C17.925 17.3252 18.55 18.4252 18.55 19.5877C18.55 20.4502 17.9375 21.8252 15.175 21.8252C12.6 21.8252 11.5875 20.6752 11.45 19.2002H8.69998C8.84998 21.9377 10.9 23.4752 13.3 23.9877V26.7002H17.05V24.0127C19.4875 23.5502 21.425 22.1377 21.425 19.5752C21.425 16.0252 18.3875 14.8127 15.55 14.0752Z" fill="#FF9B5C"/>
</g>
<defs>
<clipPath id="clip0_101_313">
<rect width="30" height="30" fill="white" transform="translate(0.799988 0.450195)"/>
</clipPath>
</defs>
</svg>
