<svg width="31" height="30" viewBox="0 0 31 30" fill="none" xmlns="http://www.w3.org/2000/svg">
<g clip-path="url(#clip0_101_317)">
<path d="M27.7775 5.625C28.0261 5.625 28.2646 5.72377 28.4404 5.89959C28.6162 6.0754 28.715 6.31386 28.715 6.5625V23.4375C28.715 23.6861 28.6162 23.9246 28.4404 24.1004C28.2646 24.2762 28.0261 24.375 27.7775 24.375H3.40247C3.15383 24.375 2.91537 24.2762 2.73955 24.1004C2.56374 23.9246 2.46497 23.6861 2.46497 23.4375V6.5625C2.46497 6.31386 2.56374 6.0754 2.73955 5.89959C2.91537 5.72377 3.15383 5.625 3.40247 5.625H27.7775ZM3.40247 3.75C2.65654 3.75 1.94117 4.04632 1.41373 4.57376C0.886282 5.10121 0.589966 5.81658 0.589966 6.5625L0.589966 23.4375C0.589966 24.1834 0.886282 24.8988 1.41373 25.4262C1.94117 25.9537 2.65654 26.25 3.40247 26.25H27.7775C28.5234 26.25 29.2388 25.9537 29.7662 25.4262C30.2936 24.8988 30.59 24.1834 30.59 23.4375V6.5625C30.59 5.81658 30.2936 5.10121 29.7662 4.57376C29.2388 4.04632 28.5234 3.75 27.7775 3.75H3.40247Z" fill="#FC3352"/>
<path d="M9.96497 15C9.96497 14.7514 10.0637 14.5129 10.2396 14.3371C10.4154 14.1613 10.6538 14.0625 10.9025 14.0625H24.0275C24.2761 14.0625 24.5146 14.1613 24.6904 14.3371C24.8662 14.5129 24.965 14.7514 24.965 15C24.965 15.2486 24.8662 15.4871 24.6904 15.6629C24.5146 15.8387 24.2761 15.9375 24.0275 15.9375H10.9025C10.6538 15.9375 10.4154 15.8387 10.2396 15.6629C10.0637 15.4871 9.96497 15.2486 9.96497 15ZM9.96497 10.3125C9.96497 10.0639 10.0637 9.8254 10.2396 9.64959C10.4154 9.47377 10.6538 9.375 10.9025 9.375H24.0275C24.2761 9.375 24.5146 9.47377 24.6904 9.64959C24.8662 9.8254 24.965 10.0639 24.965 10.3125C24.965 10.5611 24.8662 10.7996 24.6904 10.9754C24.5146 11.1512 24.2761 11.25 24.0275 11.25H10.9025C10.6538 11.25 10.4154 11.1512 10.2396 10.9754C10.0637 10.7996 9.96497 10.5611 9.96497 10.3125ZM9.96497 19.6875C9.96497 19.4389 10.0637 19.2004 10.2396 19.0246C10.4154 18.8488 10.6538 18.75 10.9025 18.75H24.0275C24.2761 18.75 24.5146 18.8488 24.6904 19.0246C24.8662 19.2004 24.965 19.4389 24.965 19.6875C24.965 19.9361 24.8662 20.1746 24.6904 20.3504C24.5146 20.5262 24.2761 20.625 24.0275 20.625H10.9025C10.6538 20.625 10.4154 20.5262 10.2396 20.3504C10.0637 20.1746 9.96497 19.9361 9.96497 19.6875ZM8.08997 10.3125C8.08997 10.5611 7.99119 10.7996 7.81538 10.9754C7.63956 11.1512 7.40111 11.25 7.15247 11.25C6.90383 11.25 6.66537 11.1512 6.48955 10.9754C6.31374 10.7996 6.21497 10.5611 6.21497 10.3125C6.21497 10.0639 6.31374 9.8254 6.48955 9.64959C6.66537 9.47377 6.90383 9.375 7.15247 9.375C7.40111 9.375 7.63956 9.47377 7.81538 9.64959C7.99119 9.8254 8.08997 10.0639 8.08997 10.3125ZM8.08997 15C8.08997 15.2486 7.99119 15.4871 7.81538 15.6629C7.63956 15.8387 7.40111 15.9375 7.15247 15.9375C6.90383 15.9375 6.66537 15.8387 6.48955 15.6629C6.31374 15.4871 6.21497 15.2486 6.21497 15C6.21497 14.7514 6.31374 14.5129 6.48955 14.3371C6.66537 14.1613 6.90383 14.0625 7.15247 14.0625C7.40111 14.0625 7.63956 14.1613 7.81538 14.3371C7.99119 14.5129 8.08997 14.7514 8.08997 15ZM8.08997 19.6875C8.08997 19.9361 7.99119 20.1746 7.81538 20.3504C7.63956 20.5262 7.40111 20.625 7.15247 20.625C6.90383 20.625 6.66537 20.5262 6.48955 20.3504C6.31374 20.1746 6.21497 19.9361 6.21497 19.6875C6.21497 19.4389 6.31374 19.2004 6.48955 19.0246C6.66537 18.8488 6.90383 18.75 7.15247 18.75C7.40111 18.75 7.63956 18.8488 7.81538 19.0246C7.99119 19.2004 8.08997 19.4389 8.08997 19.6875Z" fill="#FC3352"/>
</g>
<defs>
<clipPath id="clip0_101_317">
<rect width="30" height="30" fill="white" transform="translate(0.589966)"/>
</clipPath>
</defs>
</svg>
