<svg width="30" height="30" viewBox="0 0 30 30" fill="none" xmlns="http://www.w3.org/2000/svg">
<g clip-path="url(#clip0_101_181)">
<path d="M20.9531 19.6303L22.6198 17.9636C22.8802 17.7032 23.3333 17.8855 23.3333 18.2605V25.8334C23.3333 27.2136 22.2135 28.3334 20.8333 28.3334H2.5C1.11979 28.3334 0 27.2136 0 25.8334V7.50008C0 6.11987 1.11979 5.00008 2.5 5.00008H16.7448C17.1146 5.00008 17.3021 5.448 17.0417 5.71362L15.375 7.38029C15.2969 7.45841 15.1927 7.50008 15.0781 7.50008H2.5V25.8334H20.8333V19.922C20.8333 19.8126 20.875 19.7084 20.9531 19.6303ZM29.1094 9.11987L15.4323 22.797L10.724 23.3178C9.35937 23.4688 8.19792 22.3178 8.34896 20.9428L8.86979 16.2345L22.5469 2.55737C23.7396 1.36466 25.6667 1.36466 26.8542 2.55737L29.1042 4.80737C30.2969 6.00008 30.2969 7.93237 29.1094 9.11987ZM23.9635 10.7292L20.9375 7.70321L11.2604 17.3855L10.8802 20.7865L14.2812 20.4063L23.9635 10.7292ZM27.3385 6.57821L25.0885 4.32821C24.875 4.11466 24.526 4.11466 24.3177 4.32821L22.7083 5.93758L25.7344 8.96362L27.3438 7.35425C27.5521 7.1355 27.5521 6.79175 27.3385 6.57821Z" fill="#00D89E"/>
</g>
<defs>
<clipPath id="clip0_101_181">
<rect width="30" height="30" fill="white"/>
</clipPath>
</defs>
</svg>
