<svg width="31" height="31" viewBox="0 0 31 31" fill="none" xmlns="http://www.w3.org/2000/svg">
<g clip-path="url(#clip0_101_321)">
<path d="M26.54 3.71523C25.1367 3.40094 23.7031 3.24166 22.265 3.24023C20.9069 3.154 19.5451 3.33711 18.2579 3.77902C16.9708 4.22093 15.7837 4.91294 14.765 5.81523C13.4233 7.1569 12.0942 8.4944 10.7775 9.82773C9.26499 9.66523 5.67749 9.57773 3.27749 12.0027C3.04468 12.2369 2.914 12.5538 2.914 12.884C2.914 13.2142 3.04468 13.531 3.27749 13.7652L17.4025 27.9152C17.6367 28.148 17.9535 28.2787 18.2837 28.2787C18.614 28.2787 18.9308 28.148 19.165 27.9152C21.6025 25.4152 21.5275 21.8902 21.3775 20.4152L25.39 16.4152C29.3775 12.4277 27.565 4.94023 27.49 4.62773C27.4323 4.40228 27.3128 4.19741 27.1449 4.03619C26.9771 3.87498 26.7676 3.76382 26.54 3.71523ZM23.59 14.6527L19.14 19.0777C18.9959 19.2233 18.8897 19.402 18.8309 19.5981C18.772 19.7943 18.7623 20.0019 18.8025 20.2027C19.0725 21.875 18.8375 23.5898 18.1275 25.1277L6.03999 13.0152C7.60231 12.2962 9.34876 12.0779 11.04 12.3902C11.2401 12.4163 11.4435 12.3935 11.6329 12.3239C11.8223 12.2542 11.992 12.1397 12.1275 11.9902C12.1275 11.9902 13.8775 10.1777 16.515 7.54023C18.1368 6.23788 20.1901 5.5951 22.265 5.74023C23.241 5.74507 24.215 5.82867 25.1775 5.99023C25.4775 7.77773 25.9525 12.2902 23.59 14.6527Z" fill="#ACDF35"/>
<path d="M20.0525 13.6152C21.4332 13.6152 22.5525 12.4959 22.5525 11.1152C22.5525 9.73452 21.4332 8.61523 20.0525 8.61523C18.6718 8.61523 17.5525 9.73452 17.5525 11.1152C17.5525 12.4959 18.6718 13.6152 20.0525 13.6152Z" fill="#ACDF35"/>
<path d="M6.64001 20.7402C4.14001 21.9902 4.14001 26.9902 4.14001 26.9902C6.45385 26.9242 8.66895 26.0382 10.39 24.4902L6.64001 20.7402Z" fill="#ACDF35"/>
</g>
<defs>
<clipPath id="clip0_101_321">
<rect width="30" height="30" fill="white" transform="translate(0.390015 0.740234)"/>
</clipPath>
</defs>
</svg>
