<svg width="30" height="30" viewBox="0 0 30 30" fill="none" xmlns="http://www.w3.org/2000/svg">
<path d="M2.5 27.5H27.5" stroke="url(#paint0_linear_1238_106)" stroke-width="2" stroke-miterlimit="10" stroke-linecap="round" stroke-linejoin="round"/>
<path d="M3.6875 27.5001L3.75 12.4625C3.75 11.7 4.1125 10.9751 4.7125 10.5001L13.4625 3.6876C14.3625 2.9876 15.625 2.9876 16.5375 3.6876L25.2875 10.4876C25.9 10.9626 26.25 11.6875 26.25 12.4625V27.5001" stroke="url(#paint1_linear_1238_106)" stroke-width="2" stroke-miterlimit="10" stroke-linejoin="round"/>
<path d="M19.375 13.75H10.625C9.5875 13.75 8.75 14.5875 8.75 15.625V27.5H21.25V15.625C21.25 14.5875 20.4125 13.75 19.375 13.75Z" stroke="url(#paint2_linear_1238_106)" stroke-width="2" stroke-miterlimit="10" stroke-linecap="round" stroke-linejoin="round"/>
<path d="M12.5 20.3125V22.1875" stroke="url(#paint3_linear_1238_106)" stroke-width="2" stroke-miterlimit="10" stroke-linecap="round" stroke-linejoin="round"/>
<path d="M13.125 9.375H16.875" stroke="url(#paint4_linear_1238_106)" stroke-width="2" stroke-miterlimit="10" stroke-linecap="round" stroke-linejoin="round"/>
<defs>
<linearGradient id="paint0_linear_1238_106" x1="2.5" y1="27.8622" x2="24.953" y2="35.4957" gradientUnits="userSpaceOnUse">
<stop stop-color="#2367E8"/>
<stop offset="1" stop-color="#15B785"/>
</linearGradient>
<linearGradient id="paint1_linear_1238_106" x1="3.6875" y1="11.9777" x2="26.2899" y2="12.2627" gradientUnits="userSpaceOnUse">
<stop stop-color="#2367E8"/>
<stop offset="1" stop-color="#15B785"/>
</linearGradient>
<linearGradient id="paint2_linear_1238_106" x1="8.75" y1="18.7303" x2="21.2722" y2="18.8851" gradientUnits="userSpaceOnUse">
<stop stop-color="#2367E8"/>
<stop offset="1" stop-color="#15B785"/>
</linearGradient>
<linearGradient id="paint3_linear_1238_106" x1="12.5" y1="20.9916" x2="13.5019" y2="20.9989" gradientUnits="userSpaceOnUse">
<stop stop-color="#2367E8"/>
<stop offset="1" stop-color="#15B785"/>
</linearGradient>
<linearGradient id="paint4_linear_1238_106" x1="13.125" y1="9.7372" x2="16.8725" y2="9.92831" gradientUnits="userSpaceOnUse">
<stop stop-color="#2367E8"/>
<stop offset="1" stop-color="#15B785"/>
</linearGradient>
</defs>
</svg>
