<svg width="133" height="133" viewBox="0 0 133 133" fill="none" xmlns="http://www.w3.org/2000/svg">
<g clip-path="url(#clip0_987_194)">
<path d="M70.3286 2.10702L70.3419 2.12798L70.3569 2.14777C72.5205 4.99661 75.8398 7.29084 79.7795 9.13422C83.7246 10.9801 88.3314 12.3922 93.1162 13.4556C102.685 15.5824 113.032 16.329 120.372 16.329C122.191 16.329 123.668 17.8096 123.668 19.6397V82.2188C123.668 100.578 110.043 113.284 95.8256 121.355C88.7332 125.381 81.5378 128.227 75.919 130.022C73.1099 130.92 70.7006 131.553 68.9012 131.94C68.0007 132.133 67.2594 132.263 66.7008 132.335C66.4211 132.371 66.1941 132.391 66.0197 132.397C65.8346 132.404 65.7459 132.394 65.7225 132.389C53.4983 129.727 39.3285 124.114 28.2297 115.681C17.1312 107.249 9.17227 96.0557 9.17227 82.2188V19.6397C9.17227 17.8087 10.6499 16.329 12.4687 16.329C20.3528 16.329 30.9861 15.5067 40.8891 13.3052C50.7599 11.1109 60.0395 7.51834 65.0771 1.88552L65.0884 1.8728L65.0991 1.85945C66.5336 0.0592371 69.134 0.229873 70.3286 2.10702ZM66.2754 125.716L66.4198 125.752L66.5642 125.716C69.8763 124.895 82.4555 121.493 94.2201 114.596C105.96 107.714 117.075 97.2377 117.075 82.2188V23.5078V22.9213L116.489 22.9079C108.513 22.7264 99.3012 21.872 90.597 19.7446C81.8857 17.6154 73.7308 14.2227 67.8228 8.9975L67.4476 8.66566L67.0541 8.97557C61.1997 13.5862 46.3225 22.2146 16.3514 22.9069L15.7652 22.9204V23.5067V82.2188C15.7652 97.2377 26.8799 107.714 38.6199 114.596C50.3843 121.493 62.9633 124.895 66.2754 125.716Z" fill="white" stroke="#03050E" stroke-width="1.2"/>
<path d="M46.9507 63.2633H47.5507V62.6633V50.7994C47.5507 40.7592 55.5368 31.9738 66.5376 31.9738C76.8758 31.9738 85.2901 40.4173 85.2901 50.7994C85.2901 52.6294 83.8123 54.11 81.9936 54.11C80.1759 54.11 78.6972 52.6293 78.6972 50.7994C78.6972 44.0714 73.2455 38.5962 66.5376 38.5962C59.2099 38.5962 54.1436 44.3718 54.1436 50.7994V62.6633V63.2633H54.7436H89.7988C91.6175 63.2633 93.0953 64.7439 93.0953 66.574V97.8636C93.0953 99.6947 91.6174 101.175 89.7988 101.175H43.041C41.2233 101.175 39.7445 99.6946 39.7445 97.8636V66.574C39.7445 64.7441 41.2232 63.2633 43.041 63.2633H46.9507ZM85.9023 94.5529H86.5023V93.9529V70.4857V69.8857H85.9023H46.9375H46.3375V70.4857V93.9529V94.5529H46.9375H85.9023Z" fill="white" stroke="#03050E" stroke-width="1.2"/>
<path d="M66.4198 78.9081C68.2386 78.9081 69.7163 80.3878 69.7163 82.2188C69.7163 84.05 68.2384 85.5305 66.4198 85.5305C64.6021 85.5305 63.1233 84.0499 63.1233 82.2188C63.1233 80.3879 64.6019 78.9081 66.4198 78.9081Z" fill="white" stroke="black" stroke-width="1.2"/>
</g>
<defs>
<clipPath id="clip0_987_194">
<rect width="133" height="133" fill="white"/>
</clipPath>
</defs>
</svg>
