<svg width="164" height="154" viewBox="0 0 164 154" fill="none" xmlns="http://www.w3.org/2000/svg">
<g filter="url(#filter0_d_878_1086)">
<path d="M100.084 29.227C101.87 29.227 103.521 30.18 104.414 31.727L122.754 63.4933C123.647 65.0404 123.647 66.9463 122.754 68.4933L104.414 100.26C103.521 101.807 101.87 102.76 100.084 102.76L63.4031 102.76C61.6168 102.76 59.9661 101.807 59.073 100.26L40.7327 68.4934C39.8395 66.9463 39.8395 65.0404 40.7327 63.4933L59.073 31.727C59.9661 30.18 61.6168 29.227 63.4031 29.227L100.084 29.227Z" fill="#1F252E"/>
<path d="M100.084 29.727C101.691 29.727 103.177 30.5847 103.981 31.977L122.321 63.7433C123.125 65.1357 123.125 66.851 122.321 68.2433L103.981 100.01C103.177 101.402 101.691 102.26 100.084 102.26L63.4031 102.26C61.7954 102.26 60.3098 101.402 59.506 100.01L41.1657 68.2433C40.3618 66.851 40.3618 65.1357 41.1657 63.7433L59.506 31.977C60.3098 30.5847 61.7954 29.727 63.4031 29.727L100.084 29.727Z" stroke="url(#paint0_linear_878_1086)"/>
</g>
<path d="M87.6858 51.8333H75.8141C70.6575 51.8333 67.5833 54.9075 67.5833 60.0641V71.9216C67.5833 77.0925 70.6575 80.1666 75.8141 80.1666H87.6716C92.8283 80.1666 95.9025 77.0925 95.9025 71.9358V60.0641C95.9166 54.9075 92.8425 51.8333 87.6858 51.8333ZM75.5591 74.7125C75.5591 75.2933 75.0775 75.775 74.4966 75.775C73.9158 75.775 73.4341 75.2933 73.4341 74.7125V71.78C73.4341 71.1991 73.9158 70.7175 74.4966 70.7175C75.0775 70.7175 75.5591 71.1991 75.5591 71.78V74.7125ZM82.8125 74.7125C82.8125 75.2933 82.3308 75.775 81.75 75.775C81.1691 75.775 80.6875 75.2933 80.6875 74.7125V68.8333C80.6875 68.2525 81.1691 67.7708 81.75 67.7708C82.3308 67.7708 82.8125 68.2525 82.8125 68.8333V74.7125ZM90.0658 74.7125C90.0658 75.2933 89.5841 75.775 89.0033 75.775C88.4225 75.775 87.9408 75.2933 87.9408 74.7125V65.9008C87.9408 65.32 88.4225 64.8383 89.0033 64.8383C89.5841 64.8383 90.0658 65.32 90.0658 65.9008V74.7125ZM90.0658 61.4241C90.0658 62.005 89.5841 62.4866 89.0033 62.4866C88.4225 62.4866 87.9408 62.005 87.9408 61.4241V60.05C84.3283 63.7616 79.8091 66.3825 74.7516 67.6433C74.6666 67.6716 74.5816 67.6716 74.4966 67.6716C74.015 67.6716 73.59 67.3458 73.4625 66.8641C73.3208 66.2975 73.6608 65.7166 74.2416 65.575C79.0158 64.385 83.2658 61.8775 86.6375 58.3358H84.8666C84.2858 58.3358 83.8041 57.8541 83.8041 57.2733C83.8041 56.6925 84.2858 56.2108 84.8666 56.2108H89.0175C89.0741 56.2108 89.1166 56.2391 89.1733 56.2391C89.2441 56.2533 89.315 56.2533 89.3858 56.2816C89.4566 56.31 89.5133 56.3525 89.5841 56.395C89.6266 56.4233 89.6691 56.4375 89.7116 56.4658C89.7258 56.48 89.7258 56.4941 89.74 56.4941C89.7966 56.5508 89.8391 56.6075 89.8816 56.6641C89.9241 56.7208 89.9666 56.7633 89.9808 56.82C90.0091 56.8766 90.0091 56.9333 90.0233 57.0041C90.0375 57.075 90.0658 57.1458 90.0658 57.2308C90.0658 57.245 90.08 57.2591 90.08 57.2733V61.4241H90.0658Z" fill="url(#paint1_linear_878_1086)"/>
<defs>
<filter id="filter0_d_878_1086" x="0.0628052" y="0.227051" width="163.361" height="153.533" filterUnits="userSpaceOnUse" color-interpolation-filters="sRGB">
<feFlood flood-opacity="0" result="BackgroundImageFix"/>
<feColorMatrix in="SourceAlpha" type="matrix" values="0 0 0 0 0 0 0 0 0 0 0 0 0 0 0 0 0 0 127 0" result="hardAlpha"/>
<feOffset dy="11"/>
<feGaussianBlur stdDeviation="20"/>
<feComposite in2="hardAlpha" operator="out"/>
<feColorMatrix type="matrix" values="0 0 0 0 0 0 0 0 0 0 0 0 0 0 0 0 0 0 0.9 0"/>
<feBlend mode="normal" in2="BackgroundImageFix" result="effect1_dropShadow_878_1086"/>
<feBlend mode="normal" in="SourceGraphic" in2="effect1_dropShadow_878_1086" result="shape"/>
</filter>
<linearGradient id="paint0_linear_878_1086" x1="102.97" y1="29.227" x2="60.5163" y2="102.76" gradientUnits="userSpaceOnUse">
<stop stop-color="white" stop-opacity="0.31"/>
<stop offset="1" stop-color="white" stop-opacity="0"/>
</linearGradient>
<linearGradient id="paint1_linear_878_1086" x1="67.5833" y1="62.0958" x2="95.9519" y2="62.4814" gradientUnits="userSpaceOnUse">
<stop stop-color="#2367E8"/>
<stop offset="1" stop-color="#15B785"/>
</linearGradient>
</defs>
</svg>
