<svg width="164" height="154" viewBox="0 0 164 154" fill="none" xmlns="http://www.w3.org/2000/svg">
<g filter="url(#filter0_d_878_1052)">
<path d="M100.334 29.2291C102.12 29.2291 103.771 30.182 104.664 31.7291L123.004 63.4954C123.897 65.0424 123.897 66.9484 123.004 68.4954L104.664 100.262C103.771 101.809 102.12 102.762 100.334 102.762L63.6531 102.762C61.8668 102.762 60.2161 101.809 59.323 100.262L40.9827 68.4954C40.0895 66.9484 40.0895 65.0424 40.9827 63.4954L59.323 31.7291C60.2161 30.182 61.8668 29.2291 63.6531 29.2291L100.334 29.2291Z" fill="#1F252E"/>
<path d="M100.334 29.7291C101.941 29.7291 103.427 30.5867 104.231 31.9791L122.571 63.7454C123.375 65.1377 123.375 66.8531 122.571 68.2454L104.231 100.012C103.427 101.404 101.941 102.262 100.334 102.262L63.6531 102.262C62.0454 102.262 60.5598 101.404 59.756 100.012L41.4157 68.2454C40.6118 66.8531 40.6118 65.1377 41.4157 63.7454L59.756 31.9791C60.5598 30.5867 62.0454 29.7291 63.6531 29.7291L100.334 29.7291Z" stroke="url(#paint0_linear_878_1052)"/>
</g>
<path d="M83 69C75.485 69 69.365 74.04 69.365 80.25C69.365 80.67 69.695 81 70.115 81H95.885C96.305 81 96.635 80.67 96.635 80.25C96.635 74.04 90.515 69 83 69Z" fill="url(#paint1_linear_878_1052)"/>
<path d="M83 51C81.23 51 79.61 51.615 78.32 52.65C76.595 54.015 75.5 56.13 75.5 58.5C75.5 59.91 75.89 61.23 76.595 62.355C77.885 64.53 80.255 66 83 66C84.89 66 86.615 65.31 87.935 64.125C88.52 63.63 89.03 63.03 89.42 62.355C90.11 61.23 90.5 59.91 90.5 58.5C90.5 54.36 87.14 51 83 51ZM86.885 57.69L82.88 61.38C82.61 61.635 82.265 61.755 81.92 61.755C81.56 61.755 81.2 61.62 80.93 61.35L79.085 59.49C78.53 58.935 78.53 58.05 79.085 57.495C79.64 56.94 80.525 56.94 81.08 57.495L81.965 58.38L84.98 55.605C85.55 55.08 86.435 55.11 86.96 55.68C87.485 56.265 87.455 57.165 86.885 57.69Z" fill="url(#paint2_linear_878_1052)"/>
<defs>
<filter id="filter0_d_878_1052" x="0.312744" y="0.229065" width="163.361" height="153.533" filterUnits="userSpaceOnUse" color-interpolation-filters="sRGB">
<feFlood flood-opacity="0" result="BackgroundImageFix"/>
<feColorMatrix in="SourceAlpha" type="matrix" values="0 0 0 0 0 0 0 0 0 0 0 0 0 0 0 0 0 0 127 0" result="hardAlpha"/>
<feOffset dy="11"/>
<feGaussianBlur stdDeviation="20"/>
<feComposite in2="hardAlpha" operator="out"/>
<feColorMatrix type="matrix" values="0 0 0 0 0 0 0 0 0 0 0 0 0 0 0 0 0 0 0.9 0"/>
<feBlend mode="normal" in2="BackgroundImageFix" result="effect1_dropShadow_878_1052"/>
<feBlend mode="normal" in="SourceGraphic" in2="effect1_dropShadow_878_1052" result="shape"/>
</filter>
<linearGradient id="paint0_linear_878_1052" x1="103.22" y1="29.2291" x2="60.7663" y2="102.762" gradientUnits="userSpaceOnUse">
<stop stop-color="white" stop-opacity="0.31"/>
<stop offset="1" stop-color="white" stop-opacity="0"/>
</linearGradient>
<linearGradient id="paint1_linear_878_1052" x1="69.365" y1="73.3465" x2="96.6615" y2="74.19" gradientUnits="userSpaceOnUse">
<stop stop-color="#2367E8"/>
<stop offset="1" stop-color="#15B785"/>
</linearGradient>
<linearGradient id="paint2_linear_878_1052" x1="75.5" y1="56.4331" x2="90.5261" y2="56.6374" gradientUnits="userSpaceOnUse">
<stop stop-color="#2367E8"/>
<stop offset="1" stop-color="#15B785"/>
</linearGradient>
</defs>
</svg>
